{
  "accessors": [
    {
      "bufferView": 2,
      "componentType": 5126,
      "count": 1416,
      "max": [
        -117.64679718017578,
        -147.97999572753906,
        1.6707810163497925
      ],
      "min": [
        -119.27320098876953,
        -150.47999572753906,
        0.044433560222387314
      ],
      "type": "VEC3"
    },
    {
      "bufferView": 2,
      "byteOffset": 16992,
      "componentType": 5126,
      "count": 1416,
      "max": [
        0.9971184134483337,
        0.9889383912086487,
        0.9889994263648987
      ],
      "min": [
        -1.0,
        -0.9889383912086487,
        -0.9889994263648987
      ],
      "type": "VEC3"
    },
    {
      "bufferView": 1,
      "componentType": 5126,
      "count": 1416,
      "max": [
        0.1560765951871872,
        2.5
      ],
      "min": [
        -0.1900968998670578,
        -0.2629128098487854
      ],
      "type": "VEC2"
    },
    {
      "bufferView": 0,
      "componentType": 5125,
      "count": 1764,
      "type": "SCALAR"
    },
    {
      "bufferView": 2,
      "byteOffset": 33984,
      "componentType": 5126,
      "count": 144,
      "max": [
        -118.34400177001953,
        -148.08999633789063,
        0.8800004124641418
      ],
      "min": [
        -118.58000183105469,
        -150.3699951171875,
        0.8500003814697266
      ],
      "type": "VEC3"
    },
    {
      "bufferView": 2,
      "byteOffset": 35712,
      "componentType": 5126,
      "count": 144,
      "max": [
        1.0,
        1.0,
        1.0
      ],
      "min": [
        -1.0,
        -1.0,
        -1.0
      ],
      "type": "VEC3"
    },
    {
      "bufferView": 1,
      "byteOffset": 11328,
      "componentType": 5126,
      "count": 144,
      "max": [
        1.0,
        0.02999996952712536
      ],
      "min": [
        -1.0,
        -1.0
      ],
      "type": "VEC2"
    },
    {
      "bufferView": 0,
      "byteOffset": 7056,
      "componentType": 5125,
      "count": 216,
      "type": "SCALAR"
    },
    {
      "bufferView": 2,
      "byteOffset": 37440,
      "componentType": 5126,
      "count": 876,
      "max": [
        -118.34010314941406,
        -148.10830688476563,
        0.8763005137443542
      ],
      "min": [
        -118.58390045166016,
        -150.35169982910156,
        0.852900505065918
      ],
      "type": "VEC3"
    },
    {
      "bufferView": 2,
      "byteOffset": 47952,
      "componentType": 5126,
      "count": 876,
      "max": [
        1.0,
        1.0,
        1.0
      ],
      "min": [
        -1.0,
        -1.0,
        -1.0
      ],
      "type": "VEC3"
    },
    {
      "bufferView": 1,
      "byteOffset": 12480,
      "componentType": 5126,
      "count": 876,
      "max": [
        0.05999999865889549,
        0.029999999329447746
      ],
      "min": [
        -0.05999755859375,
        -0.029999999329447746
      ],
      "type": "VEC2"
    },
    {
      "bufferView": 0,
      "byteOffset": 7920,
      "componentType": 5125,
      "count": 1824,
      "type": "SCALAR"
    },
    {
      "bufferView": 2,
      "byteOffset": 58464,
      "componentType": 5126,
      "count": 84,
      "max": [
        -118.36000061035156,
        -147.95140075683594,
        0.965106189250946
      ],
      "min": [
        -118.55999755859375,
        -150.5,
        0.7701132893562317
      ],
      "type": "VEC3"
    },
    {
      "bufferView": 2,
      "byteOffset": 59472,
      "componentType": 5126,
      "count": 84,
      "max": [
        0.2739599943161011,
        0.9597064852714539,
        0.2810068130493164
      ],
      "min": [
        -0.2739677131175995,
        -0.9795870184898376,
        -0.2810116410255432
      ],
      "type": "VEC3"
    },
    {
      "bufferView": 1,
      "byteOffset": 19488,
      "componentType": 5126,
      "count": 84,
      "max": [
        0.39631518721580505,
        0.5065839290618896
      ],
      "min": [
        -0.5924403071403503,
        -0.5065842270851135
      ],
      "type": "VEC2"
    },
    {
      "bufferView": 0,
      "byteOffset": 15216,
      "componentType": 5125,
      "count": 84,
      "type": "SCALAR"
    }
  ],
  "asset": {
    "extras": {
      "author": "diverserp (https://sketchfab.com/diverserp)",
      "license": "CC-BY-4.0 (http://creativecommons.org/licenses/by/4.0/)",
      "source": "https://sketchfab.com/3d-models/chevaux-de-frise-bd0f03f1d8de446b94140e5ddb80a4ff",
      "title": "Chevaux De Frise"
    },
    "generator": "Sketchfab-12.68.0",
    "version": "2.0"
  },
  "bufferViews": [
    {
      "buffer": 0,
      "byteLength": 15552,
      "name": "floatBufferViews",
      "target": 34963
    },
    {
      "buffer": 0,
      "byteLength": 20160,
      "byteOffset": 15552,
      "byteStride": 8,
      "name": "floatBufferViews",
      "target": 34962
    },
    {
      "buffer": 0,
      "byteLength": 60480,
      "byteOffset": 35712,
      "byteStride": 12,
      "name": "floatBufferViews",
      "target": 34962
    }
  ],
  "buffers": [
    {
      "byteLength": 96192,
      "uri": "scene.bin"
    }
  ],
  "materials": [
    {
      "doubleSided": true,
      "name": "main_wood",
      "pbrMetallicRoughness": {
        "baseColorFactor": [
          0.7926760664667007,
          0.7926760664667007,
          0.7926760664667007,
          1.0
        ],
        "metallicFactor": 0.0,
        "roughnessFactor": 0.6
      }
    },
    {
      "doubleSided": true,
      "name": "metal",
      "pbrMetallicRoughness": {
        "metallicFactor": 0.0,
        "roughnessFactor": 0.6
      }
    },
    {
      "doubleSided": true,
      "name": "metal_1",
      "pbrMetallicRoughness": {
        "metallicFactor": 0.0,
        "roughnessFactor": 0.6
      }
    },
    {
      "doubleSided": true,
      "name": "other_wood",
      "pbrMetallicRoughness": {
        "metallicFactor": 0.0,
        "roughnessFactor": 0.6
      }
    }
  ],
  "meshes": [
    {
      "name": "Object_0",
      "primitives": [
        {
          "attributes": {
            "NORMAL": 1,
            "POSITION": 0,
            "TEXCOORD_0": 2
          },
          "indices": 3,
          "material": 0,
          "mode": 4
        }
      ]
    },
    {
      "name": "Object_1",
      "primitives": [
        {
          "attributes": {
            "NORMAL": 5,
            "POSITION": 4,
            "TEXCOORD_0": 6
          },
          "indices": 7,
          "material": 1,
          "mode": 4
        }
      ]
    },
    {
      "name": "Object_2",
      "primitives": [
        {
          "attributes": {
            "NORMAL": 9,
            "POSITION": 8,
            "TEXCOORD_0": 10
          },
          "indices": 11,
          "material": 2,
          "mode": 4
        }
      ]
    },
    {
      "name": "Object_3",
      "primitives": [
        {
          "attributes": {
            "NORMAL": 13,
            "POSITION": 12,
            "TEXCOORD_0": 14
          },
          "indices": 15,
          "material": 3,
          "mode": 4
        }
      ]
    }
  ],
  "nodes": [
    {
      "children": [
        1
      ],
      "matrix": [
        1.0,
        0.0,
        0.0,
        0.0,
        0.0,
        2.220446049250313e-16,
        -1.0,
        0.0,
        0.0,
        1.0,
        2.220446049250313e-16,
        0.0,
        0.0,
        0.0,
        0.0,
        1.0
      ],
      "name": "Sketchfab_model"
    },
    {
      "children": [
        2,
        3,
        4,
        5
      ],
      "name": "254edde696074dbd8e43d15ee2dd02a4.obj.cleaner.materialmerger.gles"
    },
    {
      "mesh": 0,
      "name": "Object_2"
    },
    {
      "mesh": 1,
      "name": "Object_3"
    },
    {
      "mesh": 2,
      "name": "Object_4"
    },
    {
      "mesh": 3,
      "name": "Object_5"
    }
  ],
  "scene": 0,
  "scenes": [
    {
      "name": "Sketchfab_Scene",
      "nodes": [
        0
      ]
    }
  ]
}
